<svg version="1.1" id="Layer_1" xmlns="http://www.w3.org/2000/svg" xmlns:xlink="http://www.w3.org/1999/xlink" x="0px" y="0px"
	 width="100%" viewBox="0 0 500 500" enable-background="new 0 0 500 500" xml:space="preserve">
<path fill="#38BDF8" opacity="1.000000" stroke="none" 
	d="
M368.106323,213.210754 
	C367.801544,213.680725 367.496796,214.150681 366.643860,214.795395 
	C365.776031,215.412903 365.456390,215.855637 365.136780,216.298370 
	C365.050293,216.570190 364.891937,216.790283 364.178986,217.111969 
	C363.512482,217.606735 363.328735,217.948181 363.144958,218.289642 
	C363.050171,218.561768 362.886383,218.782776 362.180786,219.085815 
	C361.507385,219.525284 361.306824,219.831543 361.106232,220.137817 
	C361.106232,220.137817 361.031555,220.020447 360.824463,220.129486 
	C360.449066,220.540207 360.280731,220.841858 360.112396,221.143509 
	C360.112396,221.143509 360.126007,221.015594 359.779236,221.056793 
	C357.323822,223.108322 355.215210,225.118683 353.106567,227.129059 
	C353.106598,227.129059 353.007874,227.012772 352.692322,227.026306 
	C344.920410,231.766251 337.464050,236.492630 330.007690,241.218994 
	C330.007690,241.218994 329.788574,241.369019 329.249512,241.280197 
	C328.223267,241.283173 327.702637,241.293777 327.253754,241.478607 
	C314.763519,246.621445 301.945770,250.199432 288.375702,251.387512 
	C284.772675,251.702972 281.432098,255.016113 277.971039,256.952881 
	C277.971039,256.952881 278.000885,256.998596 277.628174,257.007690 
	C276.038849,258.287476 274.358124,259.350586 273.681702,260.862885 
	C269.611603,269.962646 265.846619,279.198517 261.812256,288.314789 
	C260.492767,291.296417 261.736816,292.961548 264.306702,293.477173 
	C266.421387,293.901489 268.731110,293.353638 270.954407,293.236664 
	C271.697296,293.216125 272.440216,293.195618 273.694275,293.598541 
	C275.596069,294.324249 276.997345,294.924927 278.375427,294.875763 
	C283.640808,294.687897 288.957642,294.678101 294.146820,293.888824 
	C304.038666,292.384338 314.009766,290.975281 323.661774,288.437927 
	C333.630005,285.817535 334.266205,285.872284 332.910217,295.881866 
	C332.910217,295.881866 332.609467,296.073181 332.009460,296.052917 
	C327.404480,297.014008 323.411652,298.048462 319.392487,298.967712 
	C300.833679,303.212402 281.971863,303.879517 263.095581,302.846222 
	C247.007355,301.965515 248.326630,299.720825 252.591675,287.703247 
	C254.116287,283.407379 255.419937,279.033081 256.824463,274.694580 
	C256.824463,274.694580 256.822937,274.339417 257.216736,274.018616 
	C260.008545,267.737000 262.406586,261.776154 264.804596,255.815338 
	C264.804596,255.815338 264.974213,255.885239 265.225464,255.797424 
	C271.867096,246.900452 280.889893,243.306534 291.368317,241.931564 
	C301.974945,240.539780 312.343628,238.605713 322.401703,234.066605 
	C338.152588,226.958389 351.705780,217.279175 362.880432,204.328125 
	C366.543488,200.082748 368.902588,194.712265 371.858002,189.856293 
	C371.858002,189.856293 371.972473,189.927429 372.242371,189.821198 
	C375.998322,185.512909 379.359100,181.252563 379.194946,175.352142 
	C379.194946,175.352142 379.182190,175.211380 379.555237,175.078461 
	C380.656097,174.058411 381.467163,173.226578 382.099182,172.275757 
	C390.160828,160.147385 404.833679,158.025299 414.166443,169.621994 
	C416.315613,172.292557 418.179871,175.192413 420.175262,177.986740 
	C420.175262,177.986740 420.338623,178.237549 420.211761,178.815948 
	C421.929565,185.988022 423.692596,192.606232 425.661865,199.162476 
	C426.380432,201.554810 427.589539,203.799805 428.574890,206.112030 
	C428.655396,206.538422 428.735962,206.964813 428.551819,208.002823 
	C428.201935,209.268005 427.991821,209.932968 428.050293,210.573425 
	C429.026276,221.269745 430.011078,231.965500 431.085419,242.652176 
	C431.170471,243.498413 431.928864,244.276947 432.374390,245.086929 
	C432.431091,245.801712 432.487823,246.516510 432.122528,247.758087 
	C430.866882,255.957108 430.033264,263.629364 429.199615,271.301605 
	C429.186737,271.684845 429.173859,272.068085 428.792938,272.958984 
	C426.704681,279.165222 425.204712,284.941620 423.223938,290.548126 
	C416.590607,309.323944 407.126587,326.551086 394.541931,342.031891 
	C390.284393,347.269226 386.119415,352.581818 381.912109,357.859985 
	C381.912140,357.860016 381.962067,357.950348 381.572845,357.980927 
	C376.837524,362.075653 372.491394,366.139801 368.145264,370.203949 
	C368.145264,370.203949 368.106079,370.025360 367.784485,370.069031 
	C364.943329,372.359467 362.423798,374.606201 359.904266,376.852966 
	C359.904266,376.852966 359.670624,377.076385 359.134766,377.093567 
	C352.289917,380.967773 345.968475,384.804596 339.676270,388.688812 
	C335.401093,391.327881 331.166931,394.033356 326.914398,396.709106 
	C326.914398,396.709106 326.566345,396.959381 325.956665,396.981384 
	C316.388519,400.019653 307.500305,403.268036 298.456635,406.002411 
	C281.232971,411.209991 263.643982,414.793823 245.576569,413.933044 
	C233.034790,413.335571 220.549530,411.534729 208.042175,410.241119 
	C203.705444,409.792603 199.378159,409.252716 195.046570,408.754547 
	C194.597565,408.685059 194.148575,408.615570 193.248093,408.111969 
	C190.083389,406.589172 187.437317,405.265320 184.641205,404.466949 
	C180.447464,403.269501 179.707321,400.792969 181.112488,397.032257 
	C181.781448,395.241943 182.171829,393.347565 182.688400,391.500305 
	C182.782288,391.173492 182.876190,390.846680 183.435303,390.230865 
	C185.857712,386.224335 187.814865,382.506836 189.772034,378.789307 
	C189.772034,378.789307 189.991730,378.860168 190.221970,378.779175 
	C195.330002,372.869812 200.207779,367.041412 205.085556,361.213043 
	C205.085556,361.213043 205.372589,360.970551 205.923218,360.937408 
	C210.270645,358.201569 214.067429,355.498871 217.864197,352.796173 
	C217.864197,352.796173 217.910782,352.978180 218.244446,352.943573 
	C228.846207,349.731323 239.105240,346.523895 249.388809,343.397217 
	C251.917526,342.628357 254.526276,342.122803 257.098236,341.496216 
	C257.839111,341.390747 258.580017,341.285309 260.013184,341.476257 
	C265.975372,341.517426 271.324005,341.749481 276.499847,340.912628 
	C290.319031,338.678253 304.358002,337.019806 317.764099,333.211853 
	C334.572266,328.437561 351.010651,322.044373 365.802826,312.421021 
	C372.490723,308.070099 378.508820,302.689728 384.830780,297.776398 
	C384.830780,297.776398 384.968536,297.872406 385.159729,297.806824 
	C385.519043,297.434784 385.687134,297.128326 385.855225,296.821899 
	C385.855225,296.821899 385.822235,296.955170 386.178986,296.927307 
	C392.015381,293.204498 397.209167,289.237823 399.874908,282.867859 
	C399.874908,282.867859 399.987427,282.890167 400.191193,282.825073 
	C400.533875,282.445038 400.672760,282.130096 400.811646,281.815155 
	C400.811646,281.815155 400.878510,282.016449 401.172485,281.856628 
	C402.284698,280.407684 403.102905,279.118500 403.921082,277.829315 
	C404.182098,277.355591 404.443115,276.881866 405.243744,276.181274 
	C406.132324,275.247803 406.481293,274.541168 406.830261,273.834564 
	C406.830261,273.834564 406.980530,273.906464 407.236755,273.798462 
	C408.099731,273.132812 408.890564,272.682220 409.286255,272.001770 
	C418.108307,256.830139 424.231262,241.024307 421.052032,222.941162 
	C418.334015,207.481262 415.865692,191.984146 409.084961,177.583740 
	C406.861481,172.861710 402.916779,171.201004 398.278320,171.119904 
	C394.044342,171.045883 390.791931,172.882339 389.194092,177.349442 
	C388.089783,180.436691 386.059937,183.180664 384.612885,186.160202 
	C381.965912,191.610321 379.444183,197.121277 376.870209,202.606857 
	C376.870209,202.606857 376.690582,202.947174 376.186584,203.116974 
	C373.501495,206.242447 371.320374,209.198135 369.139221,212.153809 
	C369.139221,212.153809 369.019257,212.115280 368.809265,212.182388 
	C368.434967,212.569916 368.270630,212.890335 368.106323,213.210754 
M352.291534,330.811035 
	C330.747192,340.488983 308.330444,347.152954 284.853607,349.970154 
	C272.472992,351.455841 259.974304,352.086761 247.659012,353.959167 
	C224.600082,357.465027 207.576553,370.090210 195.914062,390.116608 
	C192.653778,395.715057 192.978149,396.630005 199.113098,398.267944 
	C222.405380,404.486786 246.034851,405.863953 269.860962,402.361725 
	C293.495850,398.887573 315.685638,391.067719 336.306976,378.954346 
	C368.029572,360.319946 392.324371,334.765442 408.000641,301.336060 
	C410.016022,297.038269 411.056366,292.283264 412.548401,287.740021 
	C412.108246,287.469849 411.668121,287.199677 411.227966,286.929474 
	C395.063568,305.889160 375.483795,320.185883 352.291534,330.811035 
z"/>
<path fill="#38BDF8" opacity="1.000000" stroke="none" 
	d="
M113.352859,200.427628 
	C107.095810,207.523117 100.443153,214.313171 94.673874,221.785263 
	C85.894699,233.155685 82.737747,246.820557 80.492264,260.692078 
	C80.387077,261.341919 81.070351,262.119385 81.477737,263.044891 
	C85.759979,257.559906 89.437889,251.968887 93.972069,247.190384 
	C116.090942,223.879852 143.673721,210.172729 174.476364,202.447479 
	C199.107346,196.270050 224.024963,194.443527 249.249847,198.202835 
	C252.232010,198.647263 254.156403,199.587631 252.880615,203.007721 
	C247.883331,216.404388 243.275681,229.968201 237.698334,243.120071 
	C232.872177,254.500610 222.865936,259.289886 211.101578,260.689789 
	C186.119446,263.662598 164.006653,273.282715 146.438324,291.237793 
	C138.069550,299.790802 131.976151,310.585571 124.987724,320.460876 
	C123.563263,322.473724 122.767319,324.927032 121.645065,327.158905 
	C117.295364,335.809387 111.215965,341.794281 100.605469,340.887817 
	C90.698318,340.041504 84.874512,333.846588 81.661858,325.307434 
	C72.081154,299.842102 66.665016,273.794006 68.715683,246.197403 
	C71.382530,210.308548 84.932007,179.276596 107.326355,151.653610 
	C107.533737,151.397827 107.815598,151.202423 108.467171,150.925858 
	C108.871651,150.872879 109.103607,151.084091 109.028000,151.423386 
	C106.287376,155.534546 103.759392,159.412674 100.932076,163.058701 
	C91.841507,174.781616 85.449806,188.037674 80.418816,201.779800 
	C76.875488,211.458359 75.357399,221.878387 72.670120,232.231049 
	C71.957962,235.327423 71.510727,238.160110 71.039925,241.245728 
	C71.018097,241.667999 71.019821,241.837341 71.012421,242.442230 
	C70.982819,244.910004 70.962341,246.942215 70.705994,249.155609 
	C70.345985,249.903381 70.221855,250.469955 70.074226,251.491730 
	C70.062172,255.298752 70.073601,258.650604 70.064194,262.415710 
	C70.070480,264.207245 70.097610,265.585480 70.089424,267.302612 
	C70.362717,268.429077 70.671326,269.216675 70.981140,270.419678 
	C71.013268,272.219177 71.044197,273.603302 71.050774,275.375214 
	C71.355049,277.510529 71.683670,279.258087 72.011749,281.376465 
	C72.037651,282.488373 72.064110,283.229462 72.064491,284.377106 
	C73.627228,291.487091 75.105751,298.219482 76.857224,304.880157 
	C77.593918,307.681763 78.907364,310.331696 80.001511,313.418518 
	C81.901268,317.984650 84.237167,322.042633 85.516205,326.410095 
	C88.257179,335.769592 100.584656,340.870148 108.943054,336.959259 
	C115.167244,334.046906 118.083557,328.065063 121.201569,322.241486 
	C125.170044,314.829468 129.181244,307.322113 134.186432,300.610901 
	C141.847626,290.338348 151.859604,282.469910 162.310730,275.004852 
	C170.992981,268.803253 180.945831,266.043610 190.500931,262.116974 
	C201.314133,257.673309 213.675949,259.453522 224.205566,253.145782 
	C229.122513,250.200333 233.367432,247.225677 235.474243,241.992508 
	C239.189087,232.765106 242.560059,223.399292 246.362885,213.918106 
	C247.426590,212.160187 248.202408,210.575577 249.034409,208.628723 
	C249.397980,206.844788 249.705368,205.423126 250.010620,203.607605 
	C248.754578,202.211319 247.628922,200.660904 246.217682,200.330627 
	C243.909805,199.790466 241.416000,200.044678 238.629974,199.957214 
	C237.517990,199.943359 236.776642,199.936066 235.855286,199.693451 
	C235.114426,199.311981 234.553574,199.165848 233.524994,199.004486 
	C226.705688,198.990463 220.354141,198.991684 213.544907,198.983887 
	C207.479004,199.322006 201.853287,199.513199 196.276245,200.138458 
	C195.057144,200.275146 194.011688,201.960632 192.485168,202.930573 
	C185.962906,203.583755 179.616165,203.435623 173.771622,205.076370 
	C164.156036,207.775787 154.626984,211.098099 145.508865,215.161713 
	C137.238861,218.847351 129.408066,223.617996 121.688461,228.402115 
	C117.007248,231.303238 112.762299,234.973862 108.578911,238.596222 
	C103.235649,243.222977 98.152100,248.149658 92.663734,253.087982 
	C91.236565,254.478897 90.102287,255.728912 88.706406,257.194550 
	C87.601143,259.271881 86.757484,261.133545 85.711990,263.256836 
	C79.752045,265.189301 78.063683,263.823700 79.200081,258.145966 
	C80.284729,252.726837 81.614761,247.356827 82.876015,241.639435 
	C82.943253,240.877228 82.971405,240.440826 83.269196,239.770905 
	C88.638168,230.595230 93.172821,221.258102 99.047760,212.858383 
	C102.596008,207.785263 108.225105,204.167526 113.027878,200.028595 
	C113.136520,200.161346 113.352859,200.427628 113.352859,200.427628 
z"/>
<path fill="#38BDF8" opacity="1.000000" stroke="none" 
	d="
M109.585114,149.589325 
	C117.457832,141.764755 124.781578,133.274979 133.305817,126.239807 
	C159.298157,104.787987 189.278030,91.764725 222.581467,86.747688 
	C257.320892,81.514305 290.868317,86.190468 323.221985,99.835976 
	C327.361786,101.581978 328.207733,104.062248 326.627930,108.099449 
	C319.593231,126.076958 306.976440,139.083771 290.691742,148.883102 
	C276.087189,157.671432 259.958496,160.492188 243.265274,160.436874 
	C216.391312,160.347809 190.185837,164.368927 164.723465,172.823898 
	C146.257233,178.955750 129.486053,188.441223 113.673569,200.310593 
	C113.352859,200.427628 113.136520,200.161346 113.202202,199.747955 
	C117.227196,196.081619 120.851479,192.263412 125.208290,189.681107 
	C138.589172,181.750214 152.313004,174.323776 167.319763,169.924515 
	C176.968140,167.096069 186.794022,164.547592 196.718246,163.062073 
	C211.557785,160.840790 226.547073,159.596710 241.490295,158.114761 
	C243.900589,157.875732 246.475311,159.062515 248.847824,158.718903 
	C255.522491,157.752106 262.085754,155.922546 268.775848,155.175674 
	C281.828156,153.718491 291.970001,146.474213 301.604187,138.693054 
	C311.959900,130.329178 320.324982,120.211380 324.755524,107.190247 
	C325.725464,104.339691 325.405914,103.095116 323.100494,102.183250 
	C315.886810,99.330017 308.793884,95.850494 301.307281,94.082558 
	C289.759094,91.355507 277.985962,88.785477 266.193756,88.090103 
	C251.707687,87.235886 236.972473,87.266731 222.587570,88.967239 
	C207.917435,90.701485 193.529968,94.432144 179.730225,100.616714 
	C165.562775,106.966080 151.980652,114.118927 139.908920,123.740181 
	C129.548630,131.997437 119.981369,141.249725 109.944328,149.943298 
	C109.825249,149.824646 109.585114,149.589340 109.585114,149.589325 
z"/>
<path fill="#38BDF8" opacity="1.000000" stroke="none" 
	d="
M377.169830,202.495071 
	C379.444183,197.121277 381.965912,191.610321 384.612885,186.160202 
	C386.059937,183.180664 388.089783,180.436691 389.194092,177.349442 
	C390.791931,172.882339 394.044342,171.045883 398.278320,171.119904 
	C402.916779,171.201004 406.861481,172.861710 409.084961,177.583740 
	C415.865692,191.984146 418.334015,207.481262 421.052032,222.941162 
	C424.231262,241.024307 418.108307,256.830139 409.286255,272.001770 
	C408.890564,272.682220 408.099731,273.132812 407.154724,273.784058 
	C408.510986,270.486145 410.133698,267.056519 411.912598,263.709869 
	C419.081268,250.223434 422.009583,235.928238 418.979675,220.895447 
	C416.527100,208.726807 413.248962,196.722229 410.219513,184.674423 
	C409.699615,182.606613 408.694519,180.634995 407.731659,178.709915 
	C405.883636,175.015030 402.822205,172.103043 398.736176,173.040878 
	C395.755188,173.725082 392.343109,175.989105 390.740875,178.557861 
	C386.366760,185.570496 382.860168,193.123245 378.975128,200.443558 
	C378.597107,201.155869 377.977112,201.739777 377.169830,202.495071 
z"/>
<path fill="#38BDF8" opacity="1.000000" stroke="none" 
	d="
M384.485413,297.822693 
	C378.508820,302.689728 372.490723,308.070099 365.802826,312.421021 
	C351.010651,322.044373 334.572266,328.437561 317.764099,333.211853 
	C304.358002,337.019806 290.319031,338.678253 276.499847,340.912628 
	C271.324005,341.749481 265.975372,341.517426 260.386444,341.527588 
	C266.114075,340.585388 272.161194,339.892029 278.207397,339.190704 
	C314.510620,334.979736 348.111542,323.462738 378.113373,302.223389 
	C380.136108,300.791473 382.131775,299.321350 384.485413,297.822693 
z"/>
<path fill="#38BDF8" opacity="1.000000" stroke="none" 
	d="
M195.308960,409.012512 
	C199.378159,409.252716 203.705444,409.792603 208.042175,410.241119 
	C220.549530,411.534729 233.034790,413.335571 245.576569,413.933044 
	C263.643982,414.793823 281.232971,411.209991 298.456635,406.002411 
	C307.500305,403.268036 316.388519,400.019653 325.750397,397.039734 
	C318.674377,400.166168 311.352081,403.733917 303.685822,406.256226 
	C281.191101,413.657257 258.033691,417.449127 234.370117,415.432953 
	C221.356644,414.324219 208.499176,411.384613 195.308960,409.012512 
z"/>
<path fill="#38BDF8" opacity="1.000000" stroke="none" 
	d="
M371.546631,189.965851 
	C368.902588,194.712265 366.543488,200.082748 362.880432,204.328125 
	C351.705780,217.279175 338.152588,226.958389 322.401703,234.066605 
	C312.343628,238.605713 301.974945,240.539780 291.368317,241.931564 
	C280.889893,243.306534 271.867096,246.900452 265.134644,255.784470 
	C268.877380,246.070923 277.265015,242.288940 286.840729,241.293930 
	C309.478912,238.941559 330.115509,231.401276 347.342194,216.649323 
	C356.313293,208.966965 363.333740,199.006714 371.546631,189.965851 
z"/>
<path fill="#38BDF8" opacity="1.000000" stroke="none" 
	d="
M256.554382,274.925201 
	C255.419937,279.033081 254.116287,283.407379 252.591675,287.703247 
	C248.326630,299.720825 247.007355,301.965515 263.095581,302.846222 
	C281.971863,303.879517 300.833679,303.212402 319.392487,298.967712 
	C323.411652,298.048462 327.404480,297.014008 331.833893,296.083618 
	C327.641235,297.716003 323.126770,299.772064 318.389221,300.796722 
	C297.779572,305.254181 276.955353,305.946564 255.997223,303.752258 
	C247.896927,302.904144 246.399155,300.968018 249.141586,293.171600 
	C251.283508,287.082306 253.886276,281.155060 256.554382,274.925201 
z"/>
<path fill="#38BDF8" opacity="1.000000" stroke="none" 
	d="
M382.247589,357.820190 
	C386.119415,352.581818 390.284393,347.269226 394.541931,342.031891 
	C407.126587,326.551086 416.590607,309.323944 423.223938,290.548126 
	C425.204712,284.941620 426.704681,279.165222 428.702759,273.233521 
	C426.194946,282.643097 424.118469,292.563232 420.477661,301.871490 
	C412.599945,322.011871 400.353088,339.503143 385.637543,355.281494 
	C384.748444,356.234833 383.607056,356.952850 382.247589,357.820190 
z"/>
<path fill="#38BDF8" opacity="1.000000" stroke="none" 
	d="
M333.275452,295.880646 
	C334.266205,285.872284 333.630005,285.817535 323.661774,288.437927 
	C314.009766,290.975281 304.038666,292.384338 294.146820,293.888824 
	C288.957642,294.678101 283.640808,294.687897 278.375427,294.875763 
	C276.997345,294.924927 275.596069,294.324249 274.060730,293.664795 
	C287.741364,291.892151 301.593506,290.688995 315.377563,288.946899 
	C320.245148,288.331726 324.886292,285.862091 329.751312,285.319305 
	C331.861206,285.083954 335.130646,287.042725 336.338287,288.967926 
	C337.893341,291.446899 336.889435,294.472351 333.275452,295.880646 
z"/>
<path fill="#38BDF8" opacity="1.000000" stroke="none" 
	d="
M420.166809,177.597595 
	C418.179871,175.192413 416.315613,172.292557 414.166443,169.621994 
	C404.833679,158.025299 390.160828,160.147385 382.099182,172.275757 
	C381.467163,173.226578 380.656097,174.058411 379.614868,175.040543 
	C382.152924,165.809769 389.683319,160.229446 399.332336,160.291794 
	C409.285889,160.356125 417.255188,166.829453 420.166809,177.597595 
z"/>
<path fill="#38BDF8" opacity="1.000000" stroke="none" 
	d="
M278.334534,256.901794 
	C281.432098,255.016113 284.772675,251.702972 288.375702,251.387512 
	C301.945770,250.199432 314.763519,246.621445 327.253754,241.478607 
	C327.702637,241.293777 328.223267,241.283173 329.117371,241.267120 
	C322.503296,244.123032 315.611969,247.322449 308.419220,249.547302 
	C302.925781,251.246506 296.997711,251.484879 291.362549,252.799774 
	C287.060181,253.803680 282.913788,255.475830 278.334534,256.901794 
z"/>
<path fill="#38BDF8" opacity="1.000000" stroke="none" 
	d="
M270.653320,292.987640 
	C268.731110,293.353638 266.421387,293.901489 264.306702,293.477173 
	C261.736816,292.961548 260.492767,291.296417 261.812256,288.314789 
	C265.846619,279.198517 269.611603,269.962646 273.681702,260.862885 
	C274.358124,259.350586 276.038849,258.287476 277.605499,256.992645 
	C273.373444,267.050598 268.596710,277.050262 264.278168,287.244049 
	C261.426544,293.975189 267.658142,291.616272 270.653320,292.987640 
z"/>
<path fill="#38BDF8" opacity="1.000000" stroke="none" 
	d="
M327.273865,396.731232 
	C331.166931,394.033356 335.401093,391.327881 339.676270,388.688812 
	C345.968475,384.804596 352.289917,380.967773 358.981018,377.143494 
	C352.912262,381.648163 346.584045,386.313293 339.963745,390.518585 
	C336.094635,392.976288 331.759033,394.699615 327.273865,396.731232 
z"/>
<path fill="#38BDF8" opacity="1.000000" stroke="none" 
	d="
M256.666534,341.348297 
	C254.526276,342.122803 251.917526,342.628357 249.388809,343.397217 
	C239.105240,346.523895 228.846207,349.731323 218.200653,352.860474 
	C223.147903,350.316986 228.268036,347.112335 233.848251,345.503357 
	C241.119492,343.406799 248.755676,342.575897 256.666534,341.348297 
z"/>
<path fill="#38BDF8" opacity="1.000000" stroke="none" 
	d="
M432.560760,244.643768 
	C431.928864,244.276947 431.170471,243.498413 431.085419,242.652176 
	C430.011078,231.965500 429.026276,221.269745 428.050293,210.573425 
	C427.991821,209.932968 428.201935,209.268005 428.529419,208.329254 
	C432.640137,219.816620 433.267151,231.945557 432.560760,244.643768 
z"/>
<path fill="#38BDF8" opacity="1.000000" stroke="none" 
	d="
M428.659729,205.718582 
	C427.589539,203.799805 426.380432,201.554810 425.661865,199.162476 
	C423.692596,192.606232 421.929565,185.988022 420.193573,178.964508 
	C423.116333,187.464813 425.930420,196.394989 428.659729,205.718582 
z"/>
<path fill="#38BDF8" opacity="1.000000" stroke="none" 
	d="
M330.392029,241.204697 
	C337.464050,236.492630 344.920410,231.766251 352.751495,227.074387 
	C345.676300,231.802734 338.226318,236.496567 330.392029,241.204697 
z"/>
<path fill="#38BDF8" opacity="1.000000" stroke="none" 
	d="
M182.389618,391.691711 
	C182.171829,393.347565 181.781448,395.241943 181.112488,397.032257 
	C179.707321,400.792969 180.447464,403.269501 184.641205,404.466949 
	C187.437317,405.265320 190.083389,406.589172 192.948853,407.944214 
	C189.148392,407.220673 185.013428,406.646088 181.334885,405.031555 
	C179.911194,404.406677 178.636612,401.310455 178.867752,399.546265 
	C179.214874,396.896606 180.947388,394.428436 182.389618,391.691711 
z"/>
<path fill="#38BDF8" opacity="1.000000" stroke="none" 
	d="
M204.749695,361.231628 
	C200.207779,367.041412 195.330002,372.869812 190.108093,378.760620 
	C194.647263,372.965454 199.530533,367.107849 204.749695,361.231628 
z"/>
<path fill="#38BDF8" opacity="1.000000" stroke="none" 
	d="
M429.442352,271.007385 
	C430.033264,263.629364 430.866882,255.957108 432.008423,248.102722 
	C431.439270,255.518127 430.562164,263.115662 429.442352,271.007385 
z"/>
<path fill="#38BDF8" opacity="1.000000" stroke="none" 
	d="
M399.547180,282.939209 
	C397.209167,289.237823 392.015381,293.204498 386.174927,296.858765 
	C390.282593,292.215576 394.751038,287.613068 399.547180,282.939209 
z"/>
<path fill="#38BDF8" opacity="1.000000" stroke="none" 
	d="
M264.485962,255.929077 
	C262.406586,261.776154 260.008545,267.737000 257.291229,273.857422 
	C259.370392,268.025635 261.768860,262.034241 264.485962,255.929077 
z"/>
<path fill="#38BDF8" opacity="1.000000" stroke="none" 
	d="
M368.490234,370.157928 
	C372.491394,366.139801 376.837524,362.075653 381.525574,357.960266 
	C377.523407,361.976624 373.179291,366.044281 368.490234,370.157928 
z"/>
<path fill="#38BDF8" opacity="1.000000" stroke="none" 
	d="
M378.909119,175.508423 
	C379.359100,181.252563 375.998322,185.512909 372.175781,189.810760 
	C374.100647,185.159271 376.361969,180.411987 378.909119,175.508423 
z"/>
<path fill="#38BDF8" opacity="1.000000" stroke="none" 
	d="
M217.501099,352.810120 
	C214.067429,355.498871 210.270645,358.201569 206.101746,360.878906 
	C209.532425,358.177032 213.335220,355.500519 217.501099,352.810120 
z"/>
<path fill="#38BDF8" opacity="1.000000" stroke="none" 
	d="
M189.461212,378.903473 
	C187.814865,382.506836 185.857712,386.224335 183.564789,390.009827 
	C185.202820,386.391052 187.176590,382.704346 189.461212,378.903473 
z"/>
<path fill="#38BDF8" opacity="1.000000" stroke="none" 
	d="
M369.464539,212.074554 
	C371.320374,209.198135 373.501495,206.242447 376.038513,203.239838 
	C374.192902,206.127029 371.991364,209.061157 369.464539,212.074554 
z"/>
<path fill="#38BDF8" opacity="1.000000" stroke="none" 
	d="
M360.248535,376.823914 
	C362.423798,374.606201 364.943329,372.359467 367.826294,370.150330 
	C365.657440,372.390228 363.125092,374.592529 360.248535,376.823914 
z"/>
<path fill="#38BDF8" opacity="1.000000" stroke="none" 
	d="
M353.446167,227.064880 
	C355.215210,225.118683 357.323822,223.108322 359.790955,221.120056 
	C358.028290,223.094986 355.907043,225.047852 353.446167,227.064880 
z"/>
<path fill="#38BDF8" opacity="1.000000" stroke="none" 
	d="
M403.599243,277.926392 
	C403.102905,279.118500 402.284698,280.407684 401.124084,281.762146 
	C401.613617,280.559448 402.445526,279.291443 403.599243,277.926392 
z"/>
<path fill="#38BDF8" opacity="1.000000" stroke="none" 
	d="
M406.536469,273.929260 
	C406.481293,274.541168 406.132324,275.247803 405.463257,276.018005 
	C405.509613,275.395752 405.876129,274.709869 406.536469,273.929260 
z"/>
<path fill="#38BDF8" opacity="1.000000" stroke="none" 
	d="
M365.410767,216.217224 
	C365.456390,215.855637 365.776031,215.412903 366.380310,214.907089 
	C366.338226,215.274704 366.011505,215.705383 365.410767,216.217224 
z"/>
<path fill="#38BDF8" opacity="1.000000" stroke="none" 
	d="
M385.599243,296.888123 
	C385.687134,297.128326 385.519043,297.434784 385.078796,297.784454 
	C384.985535,297.536560 385.164398,297.245453 385.599243,296.888123 
z"/>
<path fill="#38BDF8" opacity="1.000000" stroke="none" 
	d="
M400.564941,281.902954 
	C400.672760,282.130096 400.533875,282.445038 400.134338,282.832367 
	C400.021912,282.600067 400.170074,282.295410 400.564941,281.902954 
z"/>
<path fill="#38BDF8" opacity="1.000000" stroke="none" 
	d="
M360.371307,221.075500 
	C360.280731,220.841858 360.449066,220.540207 360.878723,220.172989 
	C360.970154,220.407455 360.800171,220.707474 360.371307,221.075500 
z"/>
<path fill="#38BDF8" opacity="1.000000" stroke="none" 
	d="
M361.367645,220.061935 
	C361.306824,219.831543 361.507385,219.525284 361.993439,219.178070 
	C362.062286,219.420105 361.845673,219.703079 361.367645,220.061935 
z"/>
<path fill="#38BDF8" opacity="1.000000" stroke="none" 
	d="
M363.402130,218.173035 
	C363.328735,217.948181 363.512482,217.606735 363.994598,217.203934 
	C364.081726,217.447205 363.870514,217.751816 363.402130,218.173035 
z"/>
<path fill="#38BDF8" opacity="1.000000" stroke="none" 
	d="
M368.359131,213.113098 
	C368.270630,212.890335 368.434967,212.569916 368.872131,212.178284 
	C368.967316,212.409882 368.789642,212.712677 368.359131,213.113098 
z"/>
<path fill="#38BDF8" opacity="1.000000" stroke="none" 
	d="
M108.756775,150.766083 
	C108.762619,150.352386 108.944984,150.088043 109.387062,149.727783 
	C109.585114,149.589340 109.825249,149.824646 109.826004,150.149612 
	C109.630585,150.731003 109.389534,150.934174 109.103607,151.084091 
	C109.103607,151.084091 108.871651,150.872879 108.756775,150.766083 
z"/>
<path fill="#38BDF8" opacity="1.000000" stroke="none" 
	d="
M246.074982,214.091415 
	C242.560059,223.399292 239.189087,232.765106 235.474243,241.992508 
	C233.367432,247.225677 229.122513,250.200333 224.205566,253.145782 
	C213.675949,259.453522 201.314133,257.673309 190.500931,262.116974 
	C180.945831,266.043610 170.992981,268.803253 162.310730,275.004852 
	C151.859604,282.469910 141.847626,290.338348 134.186432,300.610901 
	C129.181244,307.322113 125.170044,314.829468 121.201569,322.241486 
	C118.083557,328.065063 115.167244,334.046906 108.943054,336.959259 
	C100.584656,340.870148 88.257179,335.769592 85.516205,326.410095 
	C84.237167,322.042633 81.901268,317.984650 80.016678,312.975128 
	C78.279716,304.340149 76.666122,296.493317 74.786179,288.710846 
	C74.375992,287.012787 73.014130,285.544617 72.090561,283.970551 
	C72.064110,283.229462 72.037651,282.488373 72.287460,281.125061 
	C72.707756,279.004150 72.851791,277.505493 73.153542,275.698914 
	C74.118469,274.144806 74.925674,272.898621 75.732864,271.652405 
	C74.488365,271.101624 73.243874,270.550812 71.994049,269.652557 
	C71.367393,268.524658 70.746063,267.744171 70.124741,266.963715 
	C70.097610,265.585480 70.070480,264.207245 70.423737,262.420013 
	C72.202751,262.340668 73.601372,262.670349 75.038216,263.348267 
	C78.686646,265.619415 82.296860,267.542297 85.907066,269.465149 
	C86.348259,269.061249 86.789452,268.657349 87.230644,268.253448 
	C86.791702,266.500702 86.352760,264.747986 85.913818,262.995239 
	C86.757484,261.133545 87.601143,259.271881 89.087708,257.197510 
	C90.805939,255.638916 91.881279,254.292999 92.956619,252.947083 
	C98.152100,248.149658 103.235649,243.222977 108.578911,238.596222 
	C112.762299,234.973862 117.007248,231.303238 121.688461,228.402115 
	C129.408066,223.617996 137.238861,218.847351 145.508865,215.161713 
	C154.626984,211.098099 164.156036,207.775787 173.771622,205.076370 
	C179.616165,203.435623 185.962906,203.583755 192.925217,202.954254 
	C198.162018,203.164001 202.557663,203.347778 207.128464,203.538879 
	C208.487396,202.842010 210.385391,201.964813 212.174850,200.904449 
	C212.905212,200.471649 213.400391,199.641983 214.002594,198.992889 
	C220.354141,198.991684 226.705688,198.990463 233.559418,199.298752 
	C234.719482,199.715088 235.377396,199.821930 236.035294,199.928787 
	C236.776642,199.936066 237.517990,199.943359 238.665009,200.323364 
	C239.861450,203.526611 240.974152,205.495895 244.611649,204.157059 
	C246.214020,203.567276 248.200623,204.021332 250.012756,204.001465 
	C249.705368,205.423126 249.397980,206.844788 248.660339,208.631805 
	C243.308670,208.917160 243.769714,211.114197 246.074982,214.091415 
z"/>
<path fill="#38BDF8" opacity="1.000000" stroke="none" 
	d="
M109.028000,151.423386 
	C109.389534,150.934174 109.630585,150.731003 109.945084,150.268280 
	C119.981369,141.249725 129.548630,131.997437 139.908920,123.740181 
	C151.980652,114.118927 165.562775,106.966080 179.730225,100.616714 
	C193.529968,94.432144 207.917435,90.701485 222.587570,88.967239 
	C236.972473,87.266731 251.707687,87.235886 266.193756,88.090103 
	C277.985962,88.785477 289.759094,91.355507 301.307281,94.082558 
	C308.793884,95.850494 315.886810,99.330017 323.100494,102.183250 
	C325.405914,103.095116 325.725464,104.339691 324.755524,107.190247 
	C320.324982,120.211380 311.959900,130.329178 301.604187,138.693054 
	C291.970001,146.474213 281.828156,153.718491 268.775848,155.175674 
	C262.085754,155.922546 255.522491,157.752106 248.847824,158.718903 
	C246.475311,159.062515 243.900589,157.875732 241.490295,158.114761 
	C226.547073,159.596710 211.557785,160.840790 196.718246,163.062073 
	C186.794022,164.547592 176.968140,167.096069 167.319763,169.924515 
	C152.313004,174.323776 138.589172,181.750214 125.208290,189.681107 
	C120.851479,192.263412 117.227196,196.081619 113.093552,199.615204 
	C108.225105,204.167526 102.596008,207.785263 99.047760,212.858383 
	C93.172821,221.258102 88.638168,230.595230 82.998634,239.538696 
	C80.736938,233.153442 79.452408,232.132050 72.935059,231.967346 
	C75.357399,221.878387 76.875488,211.458359 80.418816,201.779800 
	C85.449806,188.037674 91.841507,174.781616 100.932076,163.058701 
	C103.759392,159.412674 106.287376,155.534546 109.028000,151.423386 
M294.024475,132.551804 
	C302.239349,126.124763 308.714905,118.362907 312.962830,108.729591 
	C265.604645,87.993057 194.629333,91.225151 139.576172,135.929092 
	C116.449997,154.707825 99.888428,178.243622 89.866714,206.346893 
	C92.075775,205.507401 93.800529,204.287994 95.202301,202.770279 
	C110.403786,186.311493 128.849228,174.565079 149.407852,166.162338 
	C179.063446,154.041504 210.087830,148.595108 242.067352,148.977615 
	C261.031708,149.204422 278.290375,144.626465 294.024475,132.551804 
z"/>
<path fill="#38BDF8" opacity="1.000000" stroke="none" 
	d="
M72.670128,232.231049 
	C79.452408,232.132050 80.736938,233.153442 82.729004,239.772186 
	C82.971405,240.440826 82.943253,240.877228 82.541885,241.722015 
	C78.199066,248.544189 76.188171,255.630798 75.000000,263.000000 
	C73.601372,262.670349 72.202751,262.340668 70.444580,262.006714 
	C70.073601,258.650604 70.062172,255.298752 70.358078,251.445282 
	C70.757568,250.287262 70.849716,249.630844 70.941864,248.974442 
	C70.962341,246.942215 70.982819,244.910004 71.176102,242.354126 
	C71.412910,241.725769 71.556046,241.569290 71.527245,241.525284 
	C71.399605,241.330154 71.222626,241.167313 71.063484,240.992798 
	C71.510727,238.160110 71.957962,235.327423 72.670128,232.231049 
z"/>
<path fill="#38BDF8" opacity="1.000000" stroke="none" 
	d="
M75.038216,263.348267 
	C76.188171,255.630798 78.199066,248.544189 82.502792,242.047806 
	C81.614761,247.356827 80.284729,252.726837 79.200081,258.145966 
	C78.063683,263.823700 79.752045,265.189301 85.711990,263.256836 
	C86.352760,264.747986 86.791702,266.500702 87.230644,268.253448 
	C86.789452,268.657349 86.348259,269.061249 85.907066,269.465149 
	C82.296860,267.542297 78.686646,265.619415 75.038216,263.348267 
z"/>
<path fill="#38BDF8" opacity="1.000000" stroke="none" 
	d="
M213.544891,198.983871 
	C213.400391,199.641983 212.905212,200.471649 212.174850,200.904449 
	C210.385391,201.964813 208.487396,202.842010 207.128464,203.538879 
	C202.557663,203.347778 198.162018,203.164001 193.326324,202.956512 
	C194.011688,201.960632 195.057144,200.275146 196.276245,200.138458 
	C201.853287,199.513199 207.479004,199.322006 213.544891,198.983871 
z"/>
<path fill="#38BDF8" opacity="1.000000" stroke="none" 
	d="
M72.064491,284.377106 
	C73.014130,285.544617 74.375992,287.012787 74.786179,288.710846 
	C76.666122,296.493317 78.279716,304.340149 79.973785,312.607239 
	C78.907364,310.331696 77.593918,307.681763 76.857224,304.880157 
	C75.105751,298.219482 73.627228,291.487091 72.064491,284.377106 
z"/>
<path fill="#38BDF8" opacity="1.000000" stroke="none" 
	d="
M250.010635,203.607605 
	C248.200623,204.021332 246.214020,203.567276 244.611649,204.157059 
	C240.974152,205.495895 239.861450,203.526611 239.035645,200.329941 
	C241.416000,200.044678 243.909805,199.790466 246.217682,200.330627 
	C247.628922,200.660904 248.754578,202.211319 250.010635,203.607605 
z"/>
<path fill="#38BDF8" opacity="1.000000" stroke="none" 
	d="
M71.999390,270.000000 
	C73.243874,270.550812 74.488365,271.101624 75.732864,271.652405 
	C74.925674,272.898621 74.118469,274.144806 72.901871,275.592712 
	C72.020035,275.525452 71.547585,275.256439 71.075134,274.987427 
	C71.044197,273.603302 71.013268,272.219177 71.236107,270.418488 
	C71.659706,270.001312 71.829544,270.000671 71.999390,270.000000 
z"/>
<path fill="#38BDF8" opacity="1.000000" stroke="none" 
	d="
M246.362885,213.918106 
	C243.769714,211.114197 243.308670,208.917160 248.604156,208.994049 
	C248.202408,210.575577 247.426590,212.160187 246.362885,213.918106 
z"/>
<path fill="#38BDF8" opacity="1.000000" stroke="none" 
	d="
M92.663742,253.087982 
	C91.881279,254.292999 90.805939,255.638916 89.349304,256.981873 
	C90.102287,255.728912 91.236565,254.478897 92.663742,253.087982 
z"/>
<path fill="#38BDF8" opacity="1.000000" stroke="none" 
	d="
M71.050781,275.375214 
	C71.547585,275.256439 72.020035,275.525452 72.744156,275.900635 
	C72.851791,277.505493 72.707756,279.004150 72.288010,280.754211 
	C71.683670,279.258087 71.355049,277.510529 71.050781,275.375214 
z"/>
<path fill="#38BDF8" opacity="1.000000" stroke="none" 
	d="
M71.994057,269.652557 
	C71.829544,270.000671 71.659706,270.001312 71.234909,270.003113 
	C70.671326,269.216675 70.362717,268.429077 70.089417,267.302612 
	C70.746063,267.744171 71.367393,268.524658 71.994057,269.652557 
z"/>
<path fill="#38BDF8" opacity="1.000000" stroke="none" 
	d="
M235.855286,199.693451 
	C235.377396,199.821930 234.719482,199.715088 234.027161,199.313995 
	C234.553574,199.165848 235.114426,199.311981 235.855286,199.693451 
z"/>
<path fill="#38BDF8" opacity="1.000000" stroke="none" 
	d="
M70.705994,249.155609 
	C70.849716,249.630844 70.757568,250.287262 70.381561,250.990112 
	C70.221855,250.469955 70.345985,249.903381 70.705994,249.155609 
z"/>
<path fill="#38BDF8" opacity="1.000000" stroke="none" 
	d="
M71.039925,241.245728 
	C71.222626,241.167313 71.399605,241.330154 71.527245,241.525284 
	C71.556046,241.569290 71.412910,241.725769 71.185226,241.918579 
	C71.019821,241.837341 71.018097,241.667999 71.039925,241.245728 
z"/>
</svg>